<svg xmlns="http://www.w3.org/2000/svg" viewBox="0 0 255.62 112.8"><defs><style>.cls-1,.cls-4{fill:#00427e;}.cls-1,.cls-3{fill-rule:evenodd;}.cls-2,.cls-3{fill:#3c3c3c;}</style></defs><g id="Capa_2" data-name="Capa 2"><g id="V1"><g id="Horizontal_2" data-name="Horizontal 2"><path class="cls-1" d="M38.7,62.93,0,24.23V38.07L31.78,69.85ZM28.32,73.31,0,45V58.84L21.4,80.23Z"/><path class="cls-1" d="M36.66,49.87l38.7,38.7V74.72L43.57,42.94ZM47,39.48,75.36,67.8V54L54,32.56Z"/><rect class="cls-2" x="15.87" y="26.25" width="9.79" height="9.79" transform="translate(-15.95 23.82) rotate(-45.02)"/><rect class="cls-2" x="19.34" y="2.03" width="9.79" height="9.79" transform="translate(2.2 19.16) rotate(-44.99)"/><polygon class="cls-3" points="31.15 20.77 34.61 24.23 38.07 20.77 34.61 17.3 31.15 20.77 27.69 24.23 24.23 20.77 27.69 17.3 31.15 20.77"/><polygon class="cls-3" points="3.46 20.77 10.39 27.69 17.31 20.77 13.85 17.3 17.3 13.84 13.85 10.38 10.39 13.84 3.46 20.77"/><path class="cls-3" d="M61.52,81.65l-6.93-6.93-6.92,6.93,6.92,6.92Zm-3.47,24.22L51.13,99l-6.92,6.91,6.92,6.93ZM44.21,92l-3.46-3.46L37.29,92l3.46,3.46L44.21,92l3.46-3.46L51.13,92l-3.46,3.46ZM71.9,92,65,85.11,58.05,92l3.46,3.46L58.05,99l3.46,3.46L65,99Z"/><path class="cls-2" d="M109.1,46.75c-.38-3.7-2.61-5.5-7.18-5.5-4.25,0-6.48,1.53-6.48,4.25,0,2.28,1.58,3.59,5.61,4.57a69.06,69.06,0,0,1,10.72,3.15c3.15,1.42,5.65,3.65,5.65,8.77,0,7.94-6,11.48-14.41,11.48-8.93,0-15.13-4-15.3-12.08H95c.11,3.7,3.21,6,8,6,4.46,0,7-1.9,7-5.11,0-2.12-1.09-3.59-5.61-4.57s-7.34-1.64-9.9-2.78c-3.86-1.74-6-4.35-6-8.92,0-6.48,4.41-11.1,13.22-11.1,9.14,0,14.26,5,14.53,11.86Z"/><path class="cls-2" d="M118.84,58.83c0-8.49,5.28-14.09,13.76-14.09s13.61,5.55,13.61,14.09-5.28,14.09-13.61,14.09C124,72.92,118.84,67.15,118.84,58.83Zm20.24,0c0-5.44-2.18-8.11-6.48-8.11s-6.47,2.67-6.47,8.11S128.3,67,132.6,67,139.08,64.27,139.08,58.83Z"/><path class="cls-2" d="M149.42,72.21V50.45h-4v-5h4c0-6.53,3.75-9.79,11.37-9.79v5.71c-3.59,0-4.41,1-4.41,4.08H161v5h-4.57V72.21Z"/><path class="cls-2" d="M177.87,54.58h6.59V62.2c0,5.66-3.27,10.72-10.83,10.72-7.84,0-10.94-5-10.94-10.77V38.21h7v7.23h14.8v5h-14.8v11c0,3.37,1.19,5.33,4.08,5.33s4.13-1.9,4.13-5.22Z"/><path class="cls-4" d="M195.66,72.21l-9.57-26.77H194l5.6,17.69,5.66-17.69h7.46l-9.64,26.77Z"/><path class="cls-4" d="M219.22,60.68c.22,4,2.51,6.64,6,6.64,2.28,0,4.3-1.15,4.79-3h7.29c-1.63,5.49-6,8.59-11.75,8.59-8.93,0-13.39-4.9-13.39-14.58,0-8.27,4.73-13.6,12.95-13.6s12.57,5.33,12.57,15.94Zm11.16-4.46c-.11-4-2.72-5.88-5.5-5.88s-5.17,2.18-5.44,5.88Z"/><path class="cls-4" d="M240.12,72.21V45.44h6.63v3.21c2.34-3.59,5.06-3.91,7.95-3.91h.92V52a11.66,11.66,0,0,0-2-.16c-4.36,0-6.48,2.18-6.48,6.48V72.21Z"/><path class="cls-2" d="M88.38,88.5V80.32h.8V88.5Z"/><path class="cls-2" d="M96.12,88.5h-.78V85.17A2.9,2.9,0,0,0,95,83.63a1.05,1.05,0,0,0-1-.49,2.05,2.05,0,0,0-.92.23,2.55,2.55,0,0,0-.79.6,2.62,2.62,0,0,0-.49.88V88.5h-.78v-6h.72v1.36a2.69,2.69,0,0,1,.63-.76,2.91,2.91,0,0,1,.89-.51,3,3,0,0,1,1-.18,1.8,1.8,0,0,1,.84.18,1.47,1.47,0,0,1,.56.52A2.64,2.64,0,0,1,96,84,5.67,5.67,0,0,1,96.12,85Z"/><path class="cls-2" d="M102.84,88.5h-.79V85.17a2.91,2.91,0,0,0-.31-1.54,1.06,1.06,0,0,0-1-.49,2,2,0,0,0-.91.23,2.55,2.55,0,0,0-.79.6,2.46,2.46,0,0,0-.49.88V88.5h-.78v-6h.71v1.36A2.9,2.9,0,0,1,100,82.61a3,3,0,0,1,1-.18,1.8,1.8,0,0,1,.84.18,1.47,1.47,0,0,1,.56.52,2.92,2.92,0,0,1,.3.82,5.67,5.67,0,0,1,.09,1.06Z"/><path class="cls-2" d="M107.07,88.62a2.91,2.91,0,0,1-1.19-.25,2.81,2.81,0,0,1-.95-.68,3,3,0,0,1-.62-1,3.3,3.3,0,0,1-.22-1.18,3.35,3.35,0,0,1,.22-1.19,3.1,3.1,0,0,1,.63-1,2.85,2.85,0,0,1,1-.68,2.91,2.91,0,0,1,1.19-.24,2.94,2.94,0,0,1,1.19.24,3,3,0,0,1,.94.68,2.91,2.91,0,0,1,.62,1,3.15,3.15,0,0,1,.22,1.19,3.1,3.1,0,0,1-.22,1.18,3,3,0,0,1-.61,1,2.81,2.81,0,0,1-1,.68A2.93,2.93,0,0,1,107.07,88.62Zm-2.18-3.08a2.55,2.55,0,0,0,.29,1.21,2.34,2.34,0,0,0,.79.86,2,2,0,0,0,1.1.31,1.91,1.91,0,0,0,1.09-.32,2.32,2.32,0,0,0,.8-.87,2.49,2.49,0,0,0,.3-1.21,2.47,2.47,0,0,0-.3-1.21,2.32,2.32,0,0,0-.8-.87,2,2,0,0,0-1.09-.32,1.89,1.89,0,0,0-1.09.33,2.4,2.4,0,0,0-.79.88A2.44,2.44,0,0,0,104.89,85.54Z"/><path class="cls-2" d="M113,88.5l-2.44-6h.82l2,5.2,2.07-5.2h.77l-2.43,6Z"/><path class="cls-2" d="M116.67,86.78a1.52,1.52,0,0,1,.32-1,2,2,0,0,1,.89-.63A3.58,3.58,0,0,1,119.2,85a7.11,7.11,0,0,1,.91.07,4.59,4.59,0,0,1,.85.21v-.51a1.62,1.62,0,0,0-.45-1.2,1.69,1.69,0,0,0-1.25-.45,2.62,2.62,0,0,0-1,.18,4.69,4.69,0,0,0-1,.53l-.3-.56a4.71,4.71,0,0,1,1.15-.6,3.28,3.28,0,0,1,1.15-.2,2.39,2.39,0,0,1,1.75.63,2.32,2.32,0,0,1,.65,1.74v2.76a.3.3,0,0,0,.07.23.32.32,0,0,0,.22.09v.62l-.22,0a.32.32,0,0,1-.14,0,.54.54,0,0,1-.44-.18.64.64,0,0,1-.16-.37v-.44a2.54,2.54,0,0,1-1,.8,3.23,3.23,0,0,1-1.31.29,2.26,2.26,0,0,1-1-.25,1.84,1.84,0,0,1-.72-.66A1.68,1.68,0,0,1,116.67,86.78Zm4,.46a2.29,2.29,0,0,0,.2-.31.72.72,0,0,0,.07-.26V85.8a5.87,5.87,0,0,0-.82-.23,4.78,4.78,0,0,0-.84-.08,2.47,2.47,0,0,0-1.36.33,1,1,0,0,0-.52.91,1.16,1.16,0,0,0,.17.62,1.39,1.39,0,0,0,.51.48,1.61,1.61,0,0,0,.78.19,2.68,2.68,0,0,0,1.06-.22A1.9,1.9,0,0,0,120.69,87.24Z"/><path class="cls-2" d="M126.27,88.26a1.91,1.91,0,0,0-.29.13,3.2,3.2,0,0,1-.47.16,2.9,2.9,0,0,1-.6.07,1.69,1.69,0,0,1-.63-.13,1.12,1.12,0,0,1-.47-.39,1.17,1.17,0,0,1-.17-.64V83.14h-.83v-.62h.83v-2h.78v2h1.39v.62h-1.39v4.1a.66.66,0,0,0,.24.49.78.78,0,0,0,.49.16,1.59,1.59,0,0,0,.59-.11,1.1,1.1,0,0,0,.32-.16Z"/><path class="cls-2" d="M127.25,81.24V80.09H128v1.15Zm0,7.26v-6H128v6Z"/><path class="cls-2" d="M134.81,88.5H134V85.17a2.91,2.91,0,0,0-.31-1.54,1.06,1.06,0,0,0-1-.49,2,2,0,0,0-.91.23,2.55,2.55,0,0,0-.79.6,2.46,2.46,0,0,0-.49.88V88.5h-.78v-6h.71v1.36A2.9,2.9,0,0,1,132,82.61a3,3,0,0,1,1-.18,1.8,1.8,0,0,1,.84.18,1.47,1.47,0,0,1,.56.52,2.92,2.92,0,0,1,.3.82,5.67,5.67,0,0,1,.09,1.06Z"/><path class="cls-2" d="M138.89,88.62a2.5,2.5,0,0,1-1.13-.26,2.85,2.85,0,0,1-.89-.68,3.29,3.29,0,0,1-.59-1,3.19,3.19,0,0,1-.2-1.14,3.34,3.34,0,0,1,.2-1.19,3.1,3.1,0,0,1,.57-1,2.85,2.85,0,0,1,.89-.69,2.57,2.57,0,0,1,1.13-.24,2.39,2.39,0,0,1,1.34.38,3.55,3.55,0,0,1,1,1V82.52h.7v6a2.31,2.31,0,0,1-1.47,2.25,3.57,3.57,0,0,1-1.47.29,3.27,3.27,0,0,1-1.66-.37,3,3,0,0,1-1-1l.48-.38a2.2,2.2,0,0,0,.95.84,2.9,2.9,0,0,0,1.26.28,2.67,2.67,0,0,0,1.08-.21,1.7,1.7,0,0,0,1.08-1.68V87.37a2.6,2.6,0,0,1-1,.91A2.55,2.55,0,0,1,138.89,88.62Zm.22-.66a1.79,1.79,0,0,0,.68-.13,2.44,2.44,0,0,0,.61-.34,2.09,2.09,0,0,0,.46-.48,1.28,1.28,0,0,0,.23-.54V84.62a2.48,2.48,0,0,0-.5-.78,2.36,2.36,0,0,0-.73-.53,2,2,0,0,0-1.75,0,1.94,1.94,0,0,0-.67.57,2.6,2.6,0,0,0-.42.79,2.65,2.65,0,0,0-.15.87,2.59,2.59,0,0,0,.17.92,2.77,2.77,0,0,0,.48.77,2,2,0,0,0,.72.52A2,2,0,0,0,139.11,88Z"/><path class="cls-2" d="M146.06,86.78a1.46,1.46,0,0,1,.32-1,1.9,1.9,0,0,1,.89-.63,3.58,3.58,0,0,1,1.32-.23,7.25,7.25,0,0,1,.91.07,4.29,4.29,0,0,1,.84.21v-.51a1.62,1.62,0,0,0-.45-1.2,1.67,1.67,0,0,0-1.24-.45,2.62,2.62,0,0,0-1,.18,5,5,0,0,0-1,.53l-.29-.56a4.71,4.71,0,0,1,1.15-.6,3.24,3.24,0,0,1,1.15-.2,2.39,2.39,0,0,1,1.75.63,2.32,2.32,0,0,1,.65,1.74v2.76a.3.3,0,0,0,.07.23.32.32,0,0,0,.22.09v.62l-.22,0a.32.32,0,0,1-.14,0,.54.54,0,0,1-.44-.18.64.64,0,0,1-.16-.37v-.44a2.54,2.54,0,0,1-1,.8,3.23,3.23,0,0,1-1.31.29,2.26,2.26,0,0,1-1.05-.25,1.84,1.84,0,0,1-.72-.66A1.68,1.68,0,0,1,146.06,86.78Zm4,.46a2.29,2.29,0,0,0,.2-.31.69.69,0,0,0,.06-.26V85.8a5.39,5.39,0,0,0-.81-.23,4.8,4.8,0,0,0-.85-.08,2.51,2.51,0,0,0-1.36.33,1,1,0,0,0-.51.91,1.16,1.16,0,0,0,.17.62,1.32,1.32,0,0,0,.51.48,1.61,1.61,0,0,0,.78.19,2.6,2.6,0,0,0,1-.22A1.87,1.87,0,0,0,150.08,87.24Z"/><path class="cls-2" d="M155.66,88.26a1.91,1.91,0,0,0-.29.13,3.2,3.2,0,0,1-.47.16,2.9,2.9,0,0,1-.6.07,1.65,1.65,0,0,1-.63-.13,1.12,1.12,0,0,1-.47-.39,1.17,1.17,0,0,1-.17-.64V83.14h-.83v-.62H153v-2h.78v2h1.39v.62h-1.39v4.1a.66.66,0,0,0,.24.49.76.76,0,0,0,.49.16,1.63,1.63,0,0,0,.59-.11,1.27,1.27,0,0,0,.32-.16Z"/><path class="cls-2" d="M162.46,88.26a1.55,1.55,0,0,0-.29.13,3.2,3.2,0,0,1-.47.16,2.9,2.9,0,0,1-.6.07,1.61,1.61,0,0,1-.63-.13,1.12,1.12,0,0,1-.47-.39,1.17,1.17,0,0,1-.17-.64V83.14H159v-.62h.83v-2h.78v2H162v.62h-1.39v4.1a.66.66,0,0,0,.24.49.76.76,0,0,0,.49.16,1.63,1.63,0,0,0,.59-.11,1.27,1.27,0,0,0,.32-.16Z"/><path class="cls-2" d="M168.48,88.5h-.78V85.17a2.64,2.64,0,0,0-.36-1.52,1.16,1.16,0,0,0-1-.51,1.89,1.89,0,0,0-.87.23,2.43,2.43,0,0,0-.76.6,2.27,2.27,0,0,0-.47.88V88.5h-.78V80.09h.78v3.79a2.83,2.83,0,0,1,1-1.06,2.55,2.55,0,0,1,1.36-.39,1.94,1.94,0,0,1,.88.18,1.44,1.44,0,0,1,.59.53,2.61,2.61,0,0,1,.33.82,4.8,4.8,0,0,1,.1,1.05Z"/><path class="cls-2" d="M172.75,88.62a3,3,0,0,1-1.2-.25,2.85,2.85,0,0,1-1-.68,3.13,3.13,0,0,1-.85-2.2,3.11,3.11,0,0,1,.39-1.53,2.87,2.87,0,0,1,2.61-1.53,2.86,2.86,0,0,1,1.55.42,3,3,0,0,1,1,1.12,3.11,3.11,0,0,1,.38,1.51v.18a.45.45,0,0,1,0,.13h-5.14a2.64,2.64,0,0,0,.36,1.14,2.24,2.24,0,0,0,.8.79,2,2,0,0,0,1.06.3,2.18,2.18,0,0,0,1.11-.3,1.66,1.66,0,0,0,.74-.79l.68.19a2.3,2.3,0,0,1-.57.77,2.76,2.76,0,0,1-.89.54A3.3,3.3,0,0,1,172.75,88.62Zm-2.21-3.39H175a2.43,2.43,0,0,0-.35-1.14,2.16,2.16,0,0,0-.79-.77,2.12,2.12,0,0,0-1.08-.28,2.06,2.06,0,0,0-1.07.28,2.08,2.08,0,0,0-.79.77A2.39,2.39,0,0,0,170.54,85.23Z"/><path class="cls-2" d="M181.83,88.62a3.63,3.63,0,0,1-1.37-.25,2.91,2.91,0,0,1-1.1-.73l.33-.56a3.18,3.18,0,0,0,1,.69,2.82,2.82,0,0,0,1.09.21,2.09,2.09,0,0,0,1.14-.28.88.88,0,0,0,.43-.8.71.71,0,0,0-.21-.55,1.65,1.65,0,0,0-.61-.31c-.26-.08-.58-.16-1-.25a7.16,7.16,0,0,1-1-.37,1.46,1.46,0,0,1-.64-.48,1.27,1.27,0,0,1-.21-.76,1.6,1.6,0,0,1,.29-1,1.88,1.88,0,0,1,.81-.58,3,3,0,0,1,1.15-.2,3.12,3.12,0,0,1,1.22.22,2.17,2.17,0,0,1,.86.61l-.38.53a2,2,0,0,0-.76-.55,2.64,2.64,0,0,0-1-.18,2.28,2.28,0,0,0-.7.1,1.12,1.12,0,0,0-.55.32.85.85,0,0,0-.21.61.7.7,0,0,0,.16.5,1.24,1.24,0,0,0,.48.3l.8.26a11.17,11.17,0,0,1,1.18.37,2.08,2.08,0,0,1,.79.48,1.21,1.21,0,0,1,.27.84,1.55,1.55,0,0,1-.63,1.31A2.76,2.76,0,0,1,181.83,88.62Z"/><path class="cls-2" d="M188.49,88.62a2.37,2.37,0,0,1-1.34-.39,2.9,2.9,0,0,1-.94-1V91h-.78V82.52h.7v1.17a2.7,2.7,0,0,1,1-.91,2.39,2.39,0,0,1,1.27-.35,2.46,2.46,0,0,1,1.15.26,2.85,2.85,0,0,1,.89.69,3.13,3.13,0,0,1,.6,1,3.21,3.21,0,0,1,.21,1.15,3.44,3.44,0,0,1-.34,1.54,2.84,2.84,0,0,1-1,1.13A2.47,2.47,0,0,1,188.49,88.62Zm-.22-.7a1.85,1.85,0,0,0,.89-.2,2,2,0,0,0,.67-.54,2.57,2.57,0,0,0,.44-.77,2.68,2.68,0,0,0,.15-.89,2.53,2.53,0,0,0-.17-.91,2.27,2.27,0,0,0-.48-.77,2.58,2.58,0,0,0-.71-.53,2,2,0,0,0-.88-.19,2,2,0,0,0-.62.11,2.65,2.65,0,0,0-.62.33,2.44,2.44,0,0,0-.49.47,1.31,1.31,0,0,0-.24.56v1.84a2.71,2.71,0,0,0,.5.76,2.32,2.32,0,0,0,.71.53A1.86,1.86,0,0,0,188.27,87.92Z"/><path class="cls-2" d="M195.13,88.62a3,3,0,0,1-1.2-.25,2.85,2.85,0,0,1-1-.68,3.25,3.25,0,0,1-.85-2.2,3.11,3.11,0,0,1,.39-1.53,2.87,2.87,0,0,1,2.61-1.53,2.83,2.83,0,0,1,1.55.42,3,3,0,0,1,1,1.12,3.11,3.11,0,0,1,.38,1.51v.18a.45.45,0,0,1,0,.13h-5.14a2.64,2.64,0,0,0,.36,1.14,2.24,2.24,0,0,0,.8.79,2,2,0,0,0,1.06.3,2.21,2.21,0,0,0,1.12-.3,1.63,1.63,0,0,0,.73-.79l.68.19a2.3,2.3,0,0,1-.57.77,2.76,2.76,0,0,1-.89.54A3.3,3.3,0,0,1,195.13,88.62Zm-2.21-3.39h4.43a2.32,2.32,0,0,0-.35-1.14,2.16,2.16,0,0,0-.79-.77,2.12,2.12,0,0,0-1.08-.28,2.06,2.06,0,0,0-1.07.28,2.08,2.08,0,0,0-.79.77A2.39,2.39,0,0,0,192.92,85.23Z"/><path class="cls-2" d="M201.89,88.62a2.91,2.91,0,0,1-1.19-.25,2.85,2.85,0,0,1-1-.68,3.1,3.1,0,0,1-.63-1,3.25,3.25,0,0,1-.22-1.21,3.21,3.21,0,0,1,.38-1.53,3,3,0,0,1,1.07-1.12,3,3,0,0,1,1.54-.41,2.83,2.83,0,0,1,1.55.42,3,3,0,0,1,1,1.12,3.11,3.11,0,0,1,.38,1.51v.18a.39.39,0,0,1,0,.13h-5.13a2.4,2.4,0,0,0,.36,1.14,2.21,2.21,0,0,0,.79.79,2,2,0,0,0,1.07.3,2.2,2.2,0,0,0,1.11-.3,1.63,1.63,0,0,0,.73-.79l.68.19a2.27,2.27,0,0,1-.56.77,2.87,2.87,0,0,1-.89.54A3.36,3.36,0,0,1,201.89,88.62Zm-2.21-3.39h4.44a2.43,2.43,0,0,0-.35-1.14,2.18,2.18,0,0,0-.8-.77,2.2,2.2,0,0,0-2.15,0,2.24,2.24,0,0,0-.79.77A2.5,2.5,0,0,0,199.68,85.23Z"/><path class="cls-2" d="M205.66,85.53A3.49,3.49,0,0,1,206,84a2.91,2.91,0,0,1,1-1.13,2.47,2.47,0,0,1,1.42-.42,2.32,2.32,0,0,1,1.34.4,3,3,0,0,1,.93,1v-3.7h.78v7.47a.28.28,0,0,0,.28.32v.62a1.65,1.65,0,0,1-.36,0,.63.63,0,0,1-.43-.19.57.57,0,0,1-.18-.41v-.58a2.63,2.63,0,0,1-1,.93,2.55,2.55,0,0,1-2.41.09,2.65,2.65,0,0,1-.91-.68,3.07,3.07,0,0,1-.6-1A3,3,0,0,1,205.66,85.53Zm5,.92V84.61a1.91,1.91,0,0,0-.49-.75,2.47,2.47,0,0,0-.75-.54,2,2,0,0,0-.84-.2,1.92,1.92,0,0,0-.87.2,2,2,0,0,0-.68.54,2.47,2.47,0,0,0-.43.78,2.73,2.73,0,0,0-.15.89,2.59,2.59,0,0,0,.17.92,2.27,2.27,0,0,0,.48.77,2,2,0,0,0,.71.52,2.13,2.13,0,0,0,.88.18,1.77,1.77,0,0,0,.62-.11,3.26,3.26,0,0,0,.62-.31,2.18,2.18,0,0,0,.48-.48A1.31,1.31,0,0,0,210.68,86.45Z"/><path class="cls-2" d="M218.73,88.62a2.91,2.91,0,0,1-1.19-.25,2.81,2.81,0,0,1-.95-.68,3,3,0,0,1-.61-1,3.1,3.1,0,0,1-.22-1.18,3.15,3.15,0,0,1,.22-1.19,2.91,2.91,0,0,1,.62-1,3.06,3.06,0,0,1,1-.68,2.94,2.94,0,0,1,1.19-.24,2.91,2.91,0,0,1,1.19.24,3.06,3.06,0,0,1,.95.68,3.25,3.25,0,0,1,.62,1,3.35,3.35,0,0,1,.22,1.19,3.3,3.3,0,0,1-.22,1.18,3,3,0,0,1-.62,1,2.77,2.77,0,0,1-.94.68A3,3,0,0,1,218.73,88.62Zm-2.18-3.08a2.44,2.44,0,0,0,.3,1.21,2.26,2.26,0,0,0,.79.86,2,2,0,0,0,1.09.31,1.94,1.94,0,0,0,1.1-.32,2.3,2.3,0,0,0,.79-.87,2.49,2.49,0,0,0,.3-1.21,2.47,2.47,0,0,0-.3-1.21,2.3,2.3,0,0,0-.79-.87,2,2,0,0,0-1.1-.32,1.92,1.92,0,0,0-1.09.33,2.49,2.49,0,0,0-.79.88A2.44,2.44,0,0,0,216.55,85.54Z"/><path class="cls-2" d="M223.21,88.5V83.12h-.82V82.5h.82v-.17a3.38,3.38,0,0,1,.22-1.26,1.73,1.73,0,0,1,.61-.82A1.63,1.63,0,0,1,225,80a2.26,2.26,0,0,1,.69.11,2.22,2.22,0,0,1,.58.27l-.25.57a1,1,0,0,0-.39-.2,2,2,0,0,0-.48-.07,1,1,0,0,0-.84.43,2.19,2.19,0,0,0-.29,1.23v.19h1.66v.62H224V88.5Z"/><path class="cls-2" d="M232,88.62a2.93,2.93,0,0,1-1.2-.25,2.85,2.85,0,0,1-1-.68A3.24,3.24,0,0,1,229,85.5a3.23,3.23,0,0,1,.38-1.55,3,3,0,0,1,1.06-1.11,3.16,3.16,0,0,1,3.06,0,2.41,2.41,0,0,1,.95,1l-.76.24a1.76,1.76,0,0,0-.71-.72,2,2,0,0,0-1-.26,2,2,0,0,0-1.09.31,2.28,2.28,0,0,0-.79.84,2.69,2.69,0,0,0,0,2.45,2.4,2.4,0,0,0,.79.88,1.94,1.94,0,0,0,1.1.32,2.11,2.11,0,0,0,.75-.13,2.41,2.41,0,0,0,.64-.38,1.3,1.3,0,0,0,.36-.51l.77.23a2.08,2.08,0,0,1-.54.77,2.94,2.94,0,0,1-.87.53A3.23,3.23,0,0,1,232,88.62Z"/><path class="cls-2" d="M238.24,88.62a3,3,0,0,1-1.19-.25,2.77,2.77,0,0,1-.94-.68,3,3,0,0,1-.62-1,3.1,3.1,0,0,1-.22-1.18,3.15,3.15,0,0,1,.22-1.19,3,3,0,0,1,1.57-1.67,3,3,0,0,1,1.2-.24,2.86,2.86,0,0,1,1.18.24A3,3,0,0,1,241,84.34a3.15,3.15,0,0,1,.22,1.19,3.1,3.1,0,0,1-.22,1.18,3,3,0,0,1-.62,1,2.77,2.77,0,0,1-.94.68A3,3,0,0,1,238.24,88.62Zm-2.17-3.08a2.43,2.43,0,0,0,.29,1.21,2.34,2.34,0,0,0,.79.86,2,2,0,0,0,1.09.31,1.94,1.94,0,0,0,1.1-.32,2.3,2.3,0,0,0,.79-.87,2.49,2.49,0,0,0,.3-1.21,2.47,2.47,0,0,0-.3-1.21,2.3,2.3,0,0,0-.79-.87,2,2,0,0,0-1.1-.32,1.86,1.86,0,0,0-1.08.33,2.4,2.4,0,0,0-.79.88A2.44,2.44,0,0,0,236.07,85.54Z"/><path class="cls-2" d="M242.14,85.53a3.49,3.49,0,0,1,.35-1.55,2.89,2.89,0,0,1,1-1.13,2.49,2.49,0,0,1,1.42-.42,2.3,2.3,0,0,1,1.34.4,2.84,2.84,0,0,1,.93,1v-3.7h.79v7.47a.32.32,0,0,0,.07.23.29.29,0,0,0,.2.09v.62a1.55,1.55,0,0,1-.35,0,.59.59,0,0,1-.43-.19.58.58,0,0,1-.19-.41v-.58a2.6,2.6,0,0,1-1,.93,2.56,2.56,0,0,1-1.27.35,2.59,2.59,0,0,1-1.15-.26,2.75,2.75,0,0,1-.91-.68,3.07,3.07,0,0,1-.6-1A3.21,3.21,0,0,1,242.14,85.53Zm5,.92V84.61a2,2,0,0,0-.48-.75,2.51,2.51,0,0,0-.76-.54,1.93,1.93,0,0,0-1.71,0,2,2,0,0,0-.67.54,2.47,2.47,0,0,0-.43.78,2.73,2.73,0,0,0-.15.89,2.58,2.58,0,0,0,.16.92,2.27,2.27,0,0,0,.48.77,2.14,2.14,0,0,0,.72.52,2.08,2.08,0,0,0,.87.18,1.73,1.73,0,0,0,.62-.11,3,3,0,0,0,.62-.31,2,2,0,0,0,.49-.48A1.29,1.29,0,0,0,247.15,86.45Z"/><path class="cls-2" d="M252.3,88.62a3,3,0,0,1-1.19-.25,2.85,2.85,0,0,1-1-.68,3.1,3.1,0,0,1-.63-1,3.25,3.25,0,0,1-.22-1.21,3.21,3.21,0,0,1,.38-1.53,3.1,3.1,0,0,1,1.07-1.12,3,3,0,0,1,1.54-.41,2.83,2.83,0,0,1,1.55.42,3,3,0,0,1,1,1.12,3.11,3.11,0,0,1,.38,1.51v.18a.39.39,0,0,1,0,.13h-5.13a2.4,2.4,0,0,0,.36,1.14,2.21,2.21,0,0,0,.79.79,2,2,0,0,0,1.07.3,2.2,2.2,0,0,0,1.11-.3,1.59,1.59,0,0,0,.73-.79l.68.19a2.27,2.27,0,0,1-.56.77,2.76,2.76,0,0,1-.89.54A3.36,3.36,0,0,1,252.3,88.62Zm-2.21-3.39h4.44a2.43,2.43,0,0,0-.35-1.14,2.18,2.18,0,0,0-.8-.77,2.2,2.2,0,0,0-2.15,0,2.24,2.24,0,0,0-.79.77A2.5,2.5,0,0,0,250.09,85.23Z"/></g></g></g></svg>