<?xml version="1.0" encoding="UTF-8"?>
<svg id="Layer_2" data-name="Layer 2" xmlns="http://www.w3.org/2000/svg" viewBox="0 0 594.86 709.08">
  <defs>
    <style>
      .cls-1 {
        fill: #8dc970;
      }

      .cls-2 {
        fill: #466179;
      }

      .cls-3 {
        fill: #5d9cd4;
      }
    </style>
  </defs>
  <g id="Layer_1-2" data-name="Layer 1">
    <g id="g4218">
      <g id="g4220">
        <g id="g4226">
          <g id="g4228">
            <path id="path4240" class="cls-1" d="M176.67,214.9c0,38.7,31.37,70.08,70.07,70.08h0c38.7,0,70.08-31.38,70.08-70.08h0c0-38.7-31.38-70.08-70.08-70.08h0c-38.7,0-70.07,31.37-70.07,70.08"/>
          </g>
        </g>
      </g>
    </g>
    <g id="g4292">
      <g id="g4294">
        <g id="g4300">
          <g id="g4302">
            <path id="path4316" class="cls-1" d="M246.75,119.26c70.19,0,105.29,29.32,105.29,87.97h0l145.18-95.43c-14.9-35.51-41.78-62.06-80.61-79.7h0L246.75,119.26h0Z"/>
          </g>
        </g>
      </g>
    </g>
    <g id="g4320">
      <g id="g4326">
        <path id="path4328" class="cls-2" d="M236.91,108.26L399.28,24.94C362.69,8.32,314.98,0,256.14,0h-84.55V108.26h65.31Z"/>
      </g>
      <g id="g4330">
        <path id="path4332" class="cls-2" d="M324.92,286.75l96.95,67.79c17.92-11.14,33.22-24.4,45.87-39.78,12.66-15.36,22.44-32.61,29.38-51.75,6.93-19.13,10.4-40,10.4-62.6,0-28.05-4.49-52.74-13.45-74.09l-140.21,92.17c0,27.12-9.65,49.87-28.93,68.25"/>
      </g>
    </g>
    <g id="g4334">
      <g id="g4336">
        <g id="g4342">
          <g id="g4344">
            <path id="path4358" class="cls-3" d="M0,0V709.08H159.72V437.61h43.02c9.89,0,19.04,2.06,27.44,6.18h0c8.41,4.12,16.48,10.05,24.23,17.8h0c7.74,7.75,15.41,17.06,22.99,27.94h0c7.58,10.88,15.49,23.24,23.73,37.09h0l110.27,182.46h183.45l-134-209.65c-6.92-10.88-14.59-22.01-22.99-33.38h0c-8.41-11.37-17.23-22-26.45-31.89h0c-9.24-9.89-18.8-18.54-28.68-25.96h0c-9.89-7.42-20.12-12.77-30.66-16.07h0v-1.98c24.06-6.92,45.91-16.48,65.52-28.68h0l-106.07-74.17c-20.77,19.78-48.3,29.67-82.58,29.67h-69.23V0H0Z"/>
          </g>
        </g>
      </g>
    </g>
  </g>
</svg>